<svg
xmlns="http://www.w3.org/2000/svg" viewBox="0 0 1024 1024" width="1em" height="1em" fill="#378ef0">
    <path d="M420.864 68.693333c210.346667-40.746667 434.986667 230.741333 335.701333 226.901334l-4.394666-0.341334c-109.994667-11.861333-109.994667 57.301333-233.130667 117.162667-123.093333 59.904-251.904-37.504-258.645333-136.533333-6.784-99.072 36.736-183.296 160.426666-207.232z m243.968 149.674667c-71.125333-64.384-160.298667-100.693333-231.808-86.869333-81.792 15.829333-114.133333 61.994667-108.8 139.989333 4.437333 64.64 94.122667 118.784 166.826667 83.413333l14.250666-7.210666c19.925333-10.496 34.389333-20.394667 55.68-37.717334l24.021334-20.096c33.066667-28.16 57.6-44.416 87.850666-52.821333l8.96-2.261333-3.968-4.053334-6.357333-6.144-6.656-6.229333zM958.890667 744.234667c-69.930667 202.581333-417.322667 261.333333-364.373334 177.28l2.517334-3.626667c65.28-89.344 5.376-123.946667 15.061333-260.48 9.685333-136.533333 158.421333-199.424 247.594667-155.733333 89.173333 43.648 140.373333 123.477333 99.2 242.56z m-251.605334 136.448c91.306667-29.44 167.338667-88.448 191.146667-157.312 27.178667-78.762667 3.370667-129.834667-66.901333-164.224-58.154667-28.501333-149.888 22.101333-155.605334 102.784-2.602667 36.821333-0.938667 56.32 7.338667 102.656l2.005333 11.221333c7.850667 42.666667 9.642667 72.106667 1.834667 102.485333l-2.56 8.832 9.728-2.56 13.013333-3.882666zM104.832 872.405333c-142.464-164.096-14.165333-501.418667 30.549333-400.213333s104.618667 66.645333 218.026667 143.317333c113.450667 76.672 93.482667 236.885333 11.093333 292.266667-82.389333 55.381333-177.066667 59.818667-259.669333-35.370667z m7.68-286.122666c-20.224 93.781333-7.125333 189.184 40.618667 244.181333 54.613333 62.933333 110.762667 67.84 175.658666 24.192 53.76-36.096 55.808-140.842667-11.221333-186.154667l-13.312-8.704c-21.205333-13.354667-38.4-21.205333-69.461333-32.725333l-20.48-7.381333c-40.874667-14.592-67.285333-27.733333-89.685334-49.664l-6.4-6.613334-2.645333 9.642667-3.114667 13.226667z" p-id="2856"></path><path d="M217.514667 756.736a32 32 0 0 1 45.226666 0.768 313.6 313.6 0 0 0 226.133334 95.829333 32 32 0 1 1 0 64 377.6 377.6 0 0 1-272.085334-115.328 32 32 0 0 1 0.725334-45.226666zM461.098667 234.069333a32 32 0 0 1-22.144 39.466667c-72.917333 20.522667-136.618667 69.888-176.554667 139.093333a32 32 0 0 1-55.466667-32C255.274667 296.96 332.672 237.013333 421.589333 211.968a32 32 0 0 1 39.509334 22.144zM783.018667 733.397333a32 32 0 0 1-22.016-39.552 313.6 313.6 0 0 0-30.037334-243.754666 32 32 0 1 1 55.424-32 377.6 377.6 0 0 1 36.181334 293.333333 32 32 0 0 1-39.552 21.973333z"></path>
</svg>
